#!OML:ASF I:\Actors\actors\Patient Classification 2\Patient 1\Session 1\actor1.ASF
:FULLY-SPECIFIED
:DEGREES
126
root -0.743448 18.5044 5.71348 -5.15587 -1.98022 -3.16882
lowerback 24.58 1.2693 2.38332
upperback 1.32743 2.3777 0.437123
thorax -12.2119 0.972984 -1.69148
lowerneck -12.0509 -2.28885 0.0127901
upperneck 18.4368 -3.53295 1.90755
head 7.70437 -1.49899 0.266779
rclavicle -1.17531e-014 6.55989e-015
rhumerus -89.1433 11.5984 -102.888
rradius 110.98
rwrist -8.27115
rhand -12.1111 -37.8788
rfingers 7.12502
rthumb 13.9499 -67.3908
lclavicle -1.17531e-014 6.55989e-015
lhumerus -85.6525 -15.9228 107.319
lradius 112.767
lwrist 30.9695
lhand -19.9001 -15.0124
lfingers 7.12502
lthumb 6.43628 14.8698
rfemur 13.8265 -4.52299 15.6021
rtibia 1.74931e-014
rfoot -12.478 -7.5572
rtoes -13.0471
lfemur -0.898475 -3.27312 -11.1138
ltibia 26.6582
lfoot -21.5799 8.3867
ltoes -56.6478
127
root -0.739016 18.504 5.71647 -5.14356 -1.95204 -3.16228
lowerback 24.7025 1.30371 2.39097
upperback 1.39487 2.42991 0.463733
thorax -12.1999 0.997926 -1.68627
lowerneck -12.0269 -2.38341 -0.0697914
upperneck 18.3992 -3.63323 1.85048
head 7.68895 -1.55838 0.252026
rclavicle -1.963e-015 -1.50082e-014
rhumerus -89.4657 11.2828 -103.144
rradius 111.09
rwrist -8.86299
rhand -12.0899 -38.2484
rfingers 7.12502
rthumb 13.9704 -67.759
lclavicle -1.963e-015 -1.50082e-014
lhumerus -85.8326 -15.6333 107.439
lradius 112.902
lwrist 30.8595
lhand -20.0832 -15.4619
lfingers 7.12502
lthumb 6.25949 14.4256
rfemur 13.8153 -4.54731 15.5703
rtibia -1.59028e-014
rfoot -12.4818 -7.55898
rtoes -13.0553
lfemur -0.959448 -3.31095 -11.151
ltibia 26.744
lfoot -21.6119 8.39789
ltoes -56.6359
128
root -0.733835 18.5079 5.72222 -4.86811 -2.05625 -3.16698
lowerback 24.535 1.39465 2.37519
upperback 1.3988 2.54454 0.502701
thorax -12.1017 1.05534 -1.66659
lowerneck -12.1216 -2.41298 -0.165256
upperneck 18.5033 -3.641 1.76927
head 7.74031 -1.5742 0.238611
rclavicle 2.29596e-014 9.44227e-015
rhumerus -89.7167 10.9902 -103.325
rradius 111.074
rwrist -9.29458
rhand -13.5221 -38.3282
rfingers 7.12502
rthumb 12.5899 -67.9289
lclavicle 2.29596e-014 9.44227e-015
lhumerus -85.8822 -15.3809 107.553
lradius 112.865
lwrist 30.6285
lhand -20.2623 -16.1072
lfingers 7.12502
lthumb 6.08659 13.7853
rfemur 13.4887 -4.46121 15.5844
rtibia 1.43125e-014
rfoot -12.4281 -7.61778
rtoes -13.3165
lfemur -1.26593 -3.31773 -11.1829
ltibia 26.8288
lfoot -21.7093 8.53137
ltoes -56.5854
129
root -0.72454 18.5162 5.72814 -4.2731 -2.39415 -3.15171
lowerback 24.0321 1.58661 2.39101
upperback 1.3402 2.78673 0.498999
thorax -11.8828 1.17147 -1.74426
lowerneck -12.4522 -2.1831 0.0872547
upperneck 18.8416 -3.29916 1.34412
head 7.89564 -1.42836 0.0864647
rclavicle -1.73067e-014 1.19271e-015
rhumerus -89.8363 10.6584 -103.379
rradius 111.012
rwrist -9.55217
rhand -16.374 -38.1356
rfingers 7.12502
rthumb 9.8393 -67.8857
lclavicle -1.73067e-014 1.19271e-015
lhumerus -85.8583 -15.2924 107.717
lradius 112.721
lwrist 30.5622
lhand -20.6936 -16.729
lfingers 7.12502
lthumb 5.67014 13.1751
rfemur 12.7447 -4.16282 15.608
rtibia 1.27222e-014
rfoot -12.2989 -7.73166
rtoes -13.6949
lfemur -1.87425 -3.23907 -11.2597
ltibia 26.9158
lfoot -21.8534 8.85593
ltoes -56.5061
130
root -0.727063 18.5193 5.74357 -3.97307 -2.34549 -3.17401
lowerback 23.6768 1.64628 2.36919
upperback 1.40274 2.85398 0.552646
thorax -11.6176 1.21283 -1.67884
lowerneck -12.9881 -1.38673 0.954554
upperneck 19.3501 -2.19426 0.360048
head 8.13151 -0.930848 -0.274414
rclavicle 1.48343e-014 -4.27387e-015
rhumerus -89.8427 10.3999 -103.322
rradius 110.963
rwrist -9.75109
rhand -17.9712 -38.485
rfingers 7.12502
rthumb 8.29814 -68.302
lclavicle 1.48343e-014 -4.27387e-015
lhumerus -85.7411 -15.2719 107.908
lradius 112.502
lwrist 30.8562
lhand -21.5185 -17.3887
lfingers 7.12502
lthumb 4.87374 12.5353
rfemur 12.4768 -4.23563 15.6462
rtibia -4.45278e-014
rfoot -12.3137 -7.7282
rtoes -13.88
lfemur -2.19863 -3.18154 -11.2106
ltibia 26.991
lfoot -21.8891 8.79845
ltoes -56.5376
